# cat-head.obj, converted from G:\Course\CG-2025-Sample\Homework4-优秀作业\Homework4-优秀作业\08_马天开\data\CatHead.usda
# vertices are in the file's own space, USD transform baked in
v 40.500000 -15.500000 -0.000001
v 40.500000 -13.500001 9.999999
v 41.500000 -19.500001 15.999999
v 37.500000 -7.500000 -1.000001
v -37.500000 -5.500000 3.000000
v -41.500000 -11.500000 2.999999
v -37.500000 -7.500000 4.999999
v -33.500000 -1.500000 6.000000
v -37.500000 -8.500001 6.999999
v -14.500000 -25.500001 12.999998
v -16.500000 -28.500000 2.999998
v -14.500000 -40.500000 3.999997
v 10.500000 21.500002 -20.999998
v 20.500000 19.500000 -2.999999
v 17.500000 14.500001 -18.999999
v -20.500000 23.499999 10.000002
v -29.500000 13.499999 14.000001
v -12.500000 23.499999 18.000002
v 7.500000 27.500000 -2.999998
v 2.500000 28.499999 14.000002
v 11.500000 25.499999 7.000002
v -6.500000 29.500000 -2.999998
v -6.500000 29.500001 -12.999998
v 28.500000 -1.500001 17.000000
v 31.500000 3.500000 -1.000000
v 26.500000 12.500000 -1.999999
v 24.500000 7.499999 14.000001
v 32.500000 -13.500002 24.999999
v 16.500000 -6.500002 27.000000
v 17.500000 -13.500002 31.999999
v 9.500000 10.500002 -27.999999
v 22.500000 6.500001 -17.000000
v -3.500000 17.500002 -31.999999
v 0.500000 21.500002 -28.999998
v 9.500000 -18.499998 -24.000001
v 33.500000 -16.499999 -16.000001
v 27.500000 -5.499999 -16.000000
v -22.500000 23.500000 -1.999998
v -28.500000 16.500000 6.000001
v -15.500000 27.500000 3.000002
v -7.500000 31.499999 8.000002
v 1.500000 -28.499999 -19.000002
v -7.500000 -21.499998 -20.000002
v 1.500000 -7.499998 -28.000001
v 7.500000 -18.500003 34.999999
v 6.500000 -12.500002 28.999999
v -4.500000 -21.500002 25.999998
v -5.500000 -27.500002 29.999998
v 15.500000 -27.499998 -23.000002
v 0.500000 -37.499999 -17.000003
v -10.500000 -32.500000 -6.000002
v -12.500000 -30.500001 15.999998
v -12.500000 -36.500002 21.999997
v 17.500000 3.499998 21.000000
v -12.500000 1.499998 27.000000
v -5.500000 -15.500002 23.999999
v 4.500000 -7.500002 26.999999
v -3.500000 14.499998 27.000001
v 10.500000 7.499998 23.000001
v 3.500000 22.499998 22.000002
v 12.500000 19.499999 16.000001
v -9.500000 9.500002 -32.999999
v -13.500000 -9.499998 -28.000001
v -14.500000 -19.499998 -22.000001
v -25.500000 -10.499998 -23.000001
v -20.500000 -3.499998 -28.000000
v -25.500000 -20.499999 -16.000002
v -24.500000 -24.499999 -10.000002
v -33.500000 -14.499999 -12.000001
v -11.500000 -26.499999 -12.000002
v -22.500000 -26.500000 -6.000002
v -35.500000 -24.500000 2.999998
v -33.500000 -22.500001 8.999998
v -37.500000 -21.500001 6.999998
v -34.500000 -22.499999 -7.000002
v -38.500000 -21.500000 -2.000002
v -39.500000 -16.500000 -4.000001
v -36.500000 -16.499999 -8.000001
v -39.500000 -17.500000 2.999999
v -40.500000 -15.500000 -1.000001
v -34.500000 -12.499999 -11.000001
v -38.500000 -11.500000 -3.000001
v -29.500000 -15.500001 14.999999
v -23.500000 -24.500001 10.999998
v -12.500000 -10.500002 23.999999
v -24.500000 -8.500002 21.999999
v -39.500000 -14.500000 5.999999
v -37.500000 -17.500001 9.999999
v -32.500000 -9.500001 12.999999
v -31.500000 -4.500001 12.000000
v -39.500000 -8.500000 -1.000001
v -35.500000 -2.500000 2.000000
v -32.500000 1.499999 15.000000
v -25.500000 1.499998 22.000000
v -12.500000 15.499998 26.000001
v -15.500000 35.500002 -25.999997
v -17.500000 32.500002 -21.999998
v -10.500000 34.500002 -21.999997
v -33.500000 5.500001 -11.000000
v -32.500000 3.500001 -17.000000
v -35.500000 -0.499999 -12.000000
v -31.500000 7.499999 14.000001
v -28.500000 8.499999 19.000001
v -33.500000 -3.500000 -5.000000
v -33.500000 -6.499999 -11.000000
v -31.500000 -0.499999 -19.000000
v -18.500000 8.500002 -27.999999
v -30.500000 6.500002 -20.000000
v -31.500000 11.500001 -12.999999
v -30.500000 14.500001 -6.999999
v -30.500000 16.500000 -0.999999
v -34.500000 3.500000 2.000000
v 0.500000 26.500002 -22.999998
v -6.500000 30.500002 -30.999998
v -5.500000 33.500002 -25.999997
v -10.500000 17.500003 -34.999999
v -11.500000 24.500003 -34.999998
v -12.500000 31.500003 -33.999998
v -13.500000 36.500002 -30.999997
v -18.500000 28.500001 -17.999998
v -20.500000 22.500001 -13.999998
v -12.500000 21.500002 -22.999998
v -0.500000 29.499998 26.000002
v -17.500000 29.499999 15.000002
v -15.500000 34.499999 18.000003
v -12.500000 38.499998 24.000003
v -9.500000 38.499998 30.000003
v -8.500000 31.499998 31.000002
v -10.500000 23.499998 30.000002
v -6.500000 24.499998 31.000002
v -4.500000 34.499998 29.000003
v -2.500000 35.499998 21.000003
v -8.500000 40.499998 23.000003
v -8.500000 38.499999 18.000003
v -13.500000 27.500001 -7.999998
vn -0.990118 -0.137516 0.027503
vn -0.990118 -0.137516 0.027503
vn -0.990118 -0.137516 0.027503
vn -0.936913 -0.342773 0.068555
vn -0.936913 -0.342773 0.068555
vn -0.936913 -0.342773 0.068555
vn 0.727607 -0.485071 -0.485071
vn 0.727607 -0.485071 -0.485071
vn 0.727607 -0.485071 -0.485071
vn 0.777778 -0.444444 -0.444444
vn 0.777778 -0.444444 -0.444444
vn 0.777778 -0.444444 -0.444444
vn 0.745356 -0.596285 -0.298142
vn 0.745356 -0.596285 -0.298142
vn 0.745356 -0.596285 -0.298142
vn 0.823842 -0.506979 -0.253490
vn 0.823842 -0.506979 -0.253490
vn 0.823842 -0.506979 -0.253490
vn 0.961848 0.140758 -0.234597
vn 0.961848 0.140758 -0.234597
vn 0.961848 0.140758 -0.234597
vn -0.713267 -0.619724 0.327401
vn -0.713267 -0.619724 0.327401
vn -0.713267 -0.619724 0.327401
vn 0.520579 -0.676753 -0.520579
vn 0.520579 -0.676753 -0.520579
vn 0.520579 -0.676753 -0.520579
vn -0.348987 -0.935919 -0.047589
vn -0.348987 -0.935919 -0.047589
vn -0.348987 -0.935919 -0.047589
vn -0.141421 -0.989949 -0.000000
vn -0.141421 -0.989949 -0.000000
vn -0.141421 -0.989949 -0.000000
vn -0.827440 -0.490139 -0.274056
vn -0.827440 -0.490139 -0.274056
vn -0.827440 -0.490139 -0.274056
vn -0.850878 -0.461717 -0.250646
vn -0.850878 -0.461717 -0.250646
vn -0.850878 -0.461717 -0.250646
vn -0.750704 -0.525493 -0.400376
vn -0.750704 -0.525493 -0.400376
vn -0.750704 -0.525493 -0.400376
vn -0.536962 -0.793510 -0.286380
vn -0.536962 -0.793510 -0.286380
vn -0.536962 -0.793510 -0.286380
vn -0.845529 -0.461197 -0.269032
vn -0.845529 -0.461197 -0.269032
vn -0.845529 -0.461197 -0.269032
vn -0.845529 -0.461197 -0.269032
vn -0.845529 -0.461197 -0.269032
vn -0.845529 -0.461197 -0.269032
vn -0.369324 -0.574504 -0.730441
vn -0.369324 -0.574504 -0.730441
vn -0.369324 -0.574504 -0.730441
vn -0.339107 -0.597474 -0.726658
vn -0.339107 -0.597474 -0.726658
vn -0.339107 -0.597474 -0.726658
vn -0.593607 -0.392951 0.702296
vn -0.593607 -0.392951 0.702296
vn -0.593607 -0.392951 0.702296
vn -0.740877 -0.588903 0.322947
vn -0.740877 -0.588903 0.322947
vn -0.740877 -0.588903 0.322947
vn -0.822482 -0.417472 0.386317
vn -0.822482 -0.417472 0.386317
vn -0.822482 -0.417472 0.386317
vn -0.669064 -0.242536 0.702517
vn -0.669064 -0.242536 0.702517
vn -0.669064 -0.242536 0.702517
vn -0.406177 -0.252488 0.878220
vn -0.406177 -0.252488 0.878220
vn -0.406177 -0.252488 0.878220
vn -0.571766 -0.402835 0.714708
vn -0.571766 -0.402835 0.714708
vn -0.571766 -0.402835 0.714708
vn -0.622869 0.106895 0.774989
vn -0.622869 0.106895 0.774989
vn -0.622869 0.106895 0.774989
vn -0.705706 -0.646347 -0.290197
vn -0.705706 -0.646347 -0.290197
vn -0.705706 -0.646347 -0.290197
vn -0.873638 -0.277668 0.399571
vn -0.873638 -0.277668 0.399571
vn -0.873638 -0.277668 0.399571
vn -0.778432 -0.424599 0.462341
vn -0.778432 -0.424599 0.462341
vn -0.778432 -0.424599 0.462341
vn -0.778432 -0.424599 0.462341
vn -0.778432 -0.424599 0.462341
vn -0.778432 -0.424599 0.462341
vn -0.850257 -0.319409 0.418380
vn -0.850257 -0.319409 0.418380
vn -0.850257 -0.319409 0.418380
vn -0.824040 -0.414942 0.385721
vn -0.824040 -0.414942 0.385721
vn -0.824040 -0.414942 0.385721
vn 0.685949 -0.718613 -0.114325
vn 0.685949 -0.718613 -0.114325
vn 0.685949 -0.718613 -0.114325
vn 0.505712 -0.853388 -0.126428
vn 0.505712 -0.853388 -0.126428
vn 0.505712 -0.853388 -0.126428
vn 0.200123 0.385951 0.900552
vn 0.200123 0.385951 0.900552
vn 0.200123 0.385951 0.900552
vn 0.043514 -0.576564 -0.815893
vn 0.043514 -0.576564 -0.815893
vn 0.043514 -0.576564 -0.815893
vn 0.256190 -0.661825 -0.704524
vn 0.256190 -0.661825 -0.704524
vn 0.256190 -0.661825 -0.704524
vn 0.592277 -0.518242 -0.616955
vn 0.592277 -0.518242 -0.616955
vn 0.592277 -0.518242 -0.616955
vn 0.593512 -0.512578 -0.620490
vn 0.593512 -0.512578 -0.620490
vn 0.593512 -0.512578 -0.620490
vn -0.307173 -0.099624 0.946425
vn -0.307173 -0.099624 0.946425
vn -0.307173 -0.099624 0.946425
vn -0.299687 -0.163466 0.939929
vn -0.299687 -0.163466 0.939929
vn -0.299687 -0.163466 0.939929
vn -0.360686 -0.072799 0.929842
vn -0.360686 -0.072799 0.929842
vn -0.360686 -0.072799 0.929842
vn -0.293860 0.130605 0.946884
vn -0.293860 0.130605 0.946884
vn -0.293860 0.130605 0.946884
vn 0.081792 0.392599 0.916065
vn 0.081792 0.392599 0.916065
vn 0.081792 0.392599 0.916065
vn 0.258072 0.182169 0.948796
vn 0.258072 0.182169 0.948796
vn 0.258072 0.182169 0.948796
vn 0.246914 0.268078 0.931218
vn 0.246914 0.268078 0.931218
vn 0.246914 0.268078 0.931218
vn 0.736968 0.352463 0.576757
vn 0.736968 0.352463 0.576757
vn 0.736968 0.352463 0.576757
vn 0.991837 -0.090167 -0.090167
vn 0.991837 -0.090167 -0.090167
vn 0.991837 -0.090167 -0.090167
vn 0.864511 -0.370504 -0.339629
vn 0.864511 -0.370504 -0.339629
vn 0.864511 -0.370504 -0.339629
vn 0.859210 -0.361772 -0.361773
vn 0.859210 -0.361772 -0.361773
vn 0.859210 -0.361772 -0.361773
vn -0.480982 -0.462120 -0.745051
vn -0.480982 -0.462120 -0.745051
vn -0.480982 -0.462120 -0.745051
vn -0.472273 -0.418299 -0.775877
vn -0.472273 -0.418299 -0.775877
vn -0.472273 -0.418299 -0.775877
vn 0.115755 0.218649 -0.968914
vn 0.115755 0.218649 -0.968914
vn 0.115755 0.218649 -0.968914
vn 0.436436 -0.218218 -0.872872
vn 0.436436 -0.218218 -0.872872
vn 0.436436 -0.218218 -0.872872
vn 0.403944 -0.195851 -0.893572
vn 0.403944 -0.195851 -0.893572
vn 0.403944 -0.195851 -0.893572
vn 0.030069 -0.360831 -0.932146
vn 0.030069 -0.360831 -0.932146
vn 0.030069 -0.360831 -0.932146
vn 0.043099 -0.517183 -0.854789
vn 0.043099 -0.517183 -0.854789
vn 0.043099 -0.517183 -0.854789
vn 0.000000 0.000000 -1.000000
vn 0.000000 0.000000 -1.000000
vn 0.000000 0.000000 -1.000000
vn -0.327339 -0.119032 -0.937380
vn -0.327339 -0.119032 -0.937380
vn -0.327339 -0.119032 -0.937380
vn -0.333605 -0.116036 -0.935544
vn -0.333605 -0.116036 -0.935544
vn -0.333605 -0.116036 -0.935544
vn -0.373527 -0.234151 -0.897580
vn -0.373527 -0.234151 -0.897580
vn -0.373527 -0.234151 -0.897580
vn -0.391919 -0.242068 -0.887582
vn -0.391919 -0.242068 -0.887582
vn -0.391919 -0.242068 -0.887582
vn -0.596852 -0.403278 -0.693639
vn -0.596852 -0.403278 -0.693639
vn -0.596852 -0.403278 -0.693639
vn -0.524321 -0.398940 -0.752286
vn -0.524321 -0.398940 -0.752286
vn -0.524321 -0.398940 -0.752286
vn -0.742376 -0.592598 -0.312579
vn -0.742376 -0.592598 -0.312579
vn -0.742376 -0.592598 -0.312579
vn -0.699821 -0.650711 -0.294662
vn -0.699821 -0.650711 -0.294662
vn -0.699821 -0.650711 -0.294662
vn -0.523693 -0.851001 0.039277
vn -0.523693 -0.851001 0.039277
vn -0.523693 -0.851001 0.039277
vn -0.514259 -0.835672 0.192847
vn -0.514259 -0.835672 0.192847
vn -0.514259 -0.835672 0.192847
vn -0.239590 0.106485 0.965017
vn -0.239590 0.106485 0.965017
vn -0.239590 0.106485 0.965017
vn -0.286039 0.095346 0.953463
vn -0.286039 0.095346 0.953463
vn -0.286039 0.095346 0.953463
vn -0.034825 0.261189 0.964659
vn -0.034825 0.261189 0.964659
vn -0.034825 0.261189 0.964659
vn -0.069112 0.518338 0.852378
vn -0.069112 0.518338 0.852378
vn -0.069112 0.518338 0.852378
vn -0.086884 0.535782 0.839874
vn -0.086884 0.535782 0.839874
vn -0.086884 0.535782 0.839874
vn 0.306667 0.466970 0.829394
vn 0.306667 0.466970 0.829394
vn 0.306667 0.466970 0.829394
vn 0.183343 0.213900 0.959496
vn 0.183343 0.213900 0.959496
vn 0.183343 0.213900 0.959496
vn 0.327991 0.382656 0.863710
vn 0.327991 0.382656 0.863710
vn 0.327991 0.382656 0.863710
vn 0.367154 0.533412 0.762017
vn 0.367154 0.533412 0.762017
vn 0.367154 0.533412 0.762017
vn 0.207390 0.829561 0.518476
vn 0.207390 0.829561 0.518476
vn 0.207390 0.829561 0.518476
vn 0.666667 0.666667 0.333333
vn 0.666667 0.666667 0.333333
vn 0.666667 0.666667 0.333333
vn 0.643063 0.439165 0.627379
vn 0.643063 0.439165 0.627379
vn 0.643063 0.439165 0.627379
vn 0.195594 0.912774 0.358590
vn 0.195594 0.912774 0.358590
vn 0.195594 0.912774 0.358590
vn 0.207390 0.829561 0.518476
vn 0.207390 0.829561 0.518476
vn 0.207390 0.829561 0.518476
vn 0.077583 0.827548 0.556009
vn 0.077583 0.827548 0.556009
vn 0.077583 0.827548 0.556009
vn 0.435627 0.649170 0.623545
vn 0.435627 0.649170 0.623545
vn 0.435627 0.649170 0.623545
vn 0.485928 0.137801 0.863067
vn 0.485928 0.137801 0.863067
vn 0.485928 0.137801 0.863067
vn 0.698926 0.560597 0.444109
vn 0.698926 0.560597 0.444109
vn 0.698926 0.560597 0.444109
vn 0.087396 0.983204 0.160226
vn 0.087396 0.983204 0.160226
vn 0.087396 0.983204 0.160226
vn 0.816184 0.470875 0.334845
vn 0.816184 0.470875 0.334845
vn 0.816184 0.470875 0.334845
vn 0.853595 0.182913 0.487769
vn 0.853595 0.182913 0.487769
vn 0.853595 0.182913 0.487769
vn 0.333993 0.899211 0.282609
vn 0.333993 0.899211 0.282609
vn 0.333993 0.899211 0.282609
vn 0.205353 0.975424 0.079859
vn 0.205353 0.975424 0.079859
vn 0.205353 0.975424 0.079859
vn 0.191614 0.910167 -0.367260
vn 0.191614 0.910167 -0.367260
vn 0.191614 0.910167 -0.367260
vn 0.408248 0.816497 -0.408248
vn 0.408248 0.816497 -0.408248
vn 0.408248 0.816497 -0.408248
vn 0.338497 0.467922 0.816375
vn 0.338497 0.467922 0.816375
vn 0.338497 0.467922 0.816375
vn 0.252904 0.943528 0.213996
vn 0.252904 0.943528 0.213996
vn 0.252904 0.943528 0.213996
vn 0.484218 0.847381 0.217898
vn 0.484218 0.847381 0.217898
vn 0.484218 0.847381 0.217898
vn 0.760941 0.366379 0.535477
vn 0.760941 0.366379 0.535477
vn 0.760941 0.366379 0.535477
vn 0.666667 0.333333 0.666667
vn 0.666667 0.333333 0.666667
vn 0.666667 0.333333 0.666667
vn 0.751101 0.344255 0.563326
vn 0.751101 0.344255 0.563326
vn 0.751101 0.344255 0.563326
vn 0.816497 0.571548 0.081650
vn 0.816497 0.571548 0.081650
vn 0.816497 0.571548 0.081650
vn 0.977805 0.207413 0.029630
vn 0.977805 0.207413 0.029630
vn 0.977805 0.207413 0.029630
vn 0.847381 0.484218 -0.217898
vn 0.847381 0.484218 -0.217898
vn 0.847381 0.484218 -0.217898
vn 0.866578 0.495188 0.061898
vn 0.866578 0.495188 0.061898
vn 0.866578 0.495188 0.061898
vn 0.778499 0.077850 0.622799
vn 0.778499 0.077850 0.622799
vn 0.778499 0.077850 0.622799
vn 0.884730 -0.101112 0.455004
vn 0.884730 -0.101112 0.455004
vn 0.884730 -0.101112 0.455004
vn 0.770371 -0.269630 0.577778
vn 0.770371 -0.269630 0.577778
vn 0.770371 -0.269630 0.577778
vn 0.889001 -0.254000 0.381000
vn 0.889001 -0.254000 0.381000
vn 0.889001 -0.254000 0.381000
vn 0.932055 0.186411 -0.310685
vn 0.932055 0.186411 -0.310685
vn 0.932055 0.186411 -0.310685
vn 0.798067 -0.041458 -0.601141
vn 0.798067 -0.041458 -0.601141
vn 0.798067 -0.041458 -0.601141
vn 0.800528 -0.065159 -0.595742
vn 0.800528 -0.065159 -0.595742
vn 0.800528 -0.065159 -0.595742
vn 0.267261 0.534523 -0.801784
vn 0.267261 0.534523 -0.801784
vn 0.267261 0.534523 -0.801784
vn 0.238951 0.935891 -0.258863
vn 0.238951 0.935891 -0.258863
vn 0.238951 0.935891 -0.258863
vn 0.173616 0.933185 -0.314679
vn 0.173616 0.933185 -0.314679
vn 0.173616 0.933185 -0.314679
vn 0.239854 0.523318 -0.817685
vn 0.239854 0.523318 -0.817685
vn 0.239854 0.523318 -0.817685
vn 0.369311 0.517035 -0.772195
vn 0.369311 0.517035 -0.772195
vn 0.369311 0.517035 -0.772195
vn 0.170697 0.238976 -0.955904
vn 0.170697 0.238976 -0.955904
vn 0.170697 0.238976 -0.955904
vn 0.278659 0.572246 -0.771287
vn 0.278659 0.572246 -0.771287
vn 0.278659 0.572246 -0.771287
vn 0.225993 0.556290 -0.799667
vn 0.225993 0.556290 -0.799667
vn 0.225993 0.556290 -0.799667
vn 0.198107 0.237729 -0.950915
vn 0.198107 0.237729 -0.950915
vn 0.198107 0.237729 -0.950915
vn 0.818182 -0.181818 -0.545455
vn 0.818182 -0.181818 -0.545455
vn 0.818182 -0.181818 -0.545455
vn 0.927173 0.264906 -0.264906
vn 0.927173 0.264906 -0.264906
vn 0.927173 0.264906 -0.264906
vn 0.941742 0.201802 -0.269069
vn 0.941742 0.201802 -0.269069
vn 0.941742 0.201802 -0.269069
vn 0.481919 0.525730 -0.700973
vn 0.481919 0.525730 -0.700973
vn 0.481919 0.525730 -0.700973
vn 0.382431 0.465569 -0.798118
vn 0.382431 0.465569 -0.798118
vn 0.382431 0.465569 -0.798118
vn 0.732242 -0.215365 -0.646096
vn 0.732242 -0.215365 -0.646096
vn 0.732242 -0.215365 -0.646096
vn 0.532748 -0.015669 -0.846129
vn 0.532748 -0.015669 -0.846129
vn 0.532748 -0.015669 -0.846129
vn 0.731667 0.143720 -0.666339
vn 0.731667 0.143720 -0.666339
vn 0.731667 0.143720 -0.666339
vn 0.734146 -0.271315 -0.622429
vn 0.734146 -0.271315 -0.622429
vn 0.734146 -0.271315 -0.622429
vn 0.832050 -0.554700 -0.000000
vn 0.832050 -0.554700 -0.000000
vn 0.832050 -0.554700 -0.000000
vn 0.894427 -0.000000 0.447214
vn 0.894427 -0.000000 0.447214
vn 0.894427 -0.000000 0.447214
vn 0.872872 -0.218218 0.436436
vn 0.872872 -0.218218 0.436436
vn 0.872872 -0.218218 0.436436
vn 0.945732 0.315244 -0.078811
vn 0.945732 0.315244 -0.078811
vn 0.945732 0.315244 -0.078811
vn 0.904534 0.301511 -0.301511
vn 0.904534 0.301511 -0.301511
vn 0.904534 0.301511 -0.301511
vn 0.751439 -0.143131 -0.644091
vn 0.751439 -0.143131 -0.644091
vn 0.751439 -0.143131 -0.644091
vn 0.770054 -0.592349 -0.236940
vn 0.770054 -0.592349 -0.236940
vn 0.770054 -0.592349 -0.236940
vn 0.644810 -0.456085 -0.613356
vn 0.644810 -0.456085 -0.613356
vn 0.644810 -0.456085 -0.613356
vn 0.870515 -0.257930 -0.419137
vn 0.870515 -0.257930 -0.419137
vn 0.870515 -0.257930 -0.419137
vn 0.948683 0.252982 -0.189737
vn 0.948683 0.252982 -0.189737
vn 0.948683 0.252982 -0.189737
vn 0.639602 0.426401 -0.639602
vn 0.639602 0.426401 -0.639602
vn 0.639602 0.426401 -0.639602
vn 0.831718 0.083172 -0.548934
vn 0.831718 0.083172 -0.548934
vn 0.831718 0.083172 -0.548934
vn 0.358748 0.035875 -0.932745
vn 0.358748 0.035875 -0.932745
vn 0.358748 0.035875 -0.932745
vn 0.358184 -0.066520 -0.931278
vn 0.358184 -0.066520 -0.931278
vn 0.358184 -0.066520 -0.931278
vn 0.237252 -0.830382 -0.504160
vn 0.237252 -0.830382 -0.504160
vn 0.237252 -0.830382 -0.504160
vn 0.900682 -0.344378 0.264906
vn 0.900682 -0.344378 0.264906
vn 0.900682 -0.344378 0.264906
vn 0.983636 -0.172568 -0.051770
vn 0.983636 -0.172568 -0.051770
vn 0.983636 -0.172568 -0.051770
vn 0.688247 -0.229416 -0.688247
vn 0.688247 -0.229416 -0.688247
vn 0.688247 -0.229416 -0.688247
vn 0.838054 0.132324 -0.529297
vn 0.838054 0.132324 -0.529297
vn 0.838054 0.132324 -0.529297
vn 0.846499 -0.282166 -0.451466
vn 0.846499 -0.282166 -0.451466
vn 0.846499 -0.282166 -0.451466
vn 0.945611 0.290957 -0.145479
vn 0.945611 0.290957 -0.145479
vn 0.945611 0.290957 -0.145479
vn 0.983078 -0.163846 0.081923
vn 0.983078 -0.163846 0.081923
vn 0.983078 -0.163846 0.081923
vn 0.803386 -0.389520 0.450383
vn 0.803386 -0.389520 0.450383
vn 0.803386 -0.389520 0.450383
vn 0.670370 -0.243771 0.700842
vn 0.670370 -0.243771 0.700842
vn 0.670370 -0.243771 0.700842
vn 0.696311 -0.696311 0.174078
vn 0.696311 -0.696311 0.174078
vn 0.696311 -0.696311 0.174078
vn 0.836315 -0.456172 0.304114
vn 0.836315 -0.456172 0.304114
vn 0.836315 -0.456172 0.304114
vn 0.901263 -0.240337 -0.360505
vn 0.901263 -0.240337 -0.360505
vn 0.901263 -0.240337 -0.360505
vn 0.755046 0.203743 0.623213
vn 0.755046 0.203743 0.623213
vn 0.755046 0.203743 0.623213
vn 0.831846 0.148544 0.534758
vn 0.831846 0.148544 0.534758
vn 0.831846 0.148544 0.534758
vn 0.978980 -0.163163 0.122373
vn 0.978980 -0.163163 0.122373
vn 0.978980 -0.163163 0.122373
vn 0.813733 0.348743 0.464991
vn 0.813733 0.348743 0.464991
vn 0.813733 0.348743 0.464991
vn 0.867826 -0.030994 0.495901
vn 0.867826 -0.030994 0.495901
vn 0.867826 -0.030994 0.495901
vn 0.490946 -0.081824 0.867339
vn 0.490946 -0.081824 0.867339
vn 0.490946 -0.081824 0.867339
vn 0.563033 -0.093839 0.821090
vn 0.563033 -0.093839 0.821090
vn 0.563033 -0.093839 0.821090
vn 0.660747 0.062335 0.748016
vn 0.660747 0.062335 0.748016
vn 0.660747 0.062335 0.748016
vn 0.589732 0.031038 0.807002
vn 0.589732 0.031038 0.807002
vn 0.589732 0.031038 0.807002
vn 0.852325 -0.047351 0.520865
vn 0.852325 -0.047351 0.520865
vn 0.852325 -0.047351 0.520865
vn 0.903252 -0.338720 0.263448
vn 0.903252 -0.338720 0.263448
vn 0.903252 -0.338720 0.263448
vn 0.933346 -0.215387 0.287183
vn 0.933346 -0.215387 0.287183
vn 0.933346 -0.215387 0.287183
vn 0.948683 -0.316228 -0.000000
vn 0.948683 -0.316228 -0.000000
vn 0.948683 -0.316228 -0.000000
vn 0.957518 -0.273576 0.091192
vn 0.957518 -0.273576 0.091192
vn 0.957518 -0.273576 0.091192
vn 0.945370 -0.325207 0.022689
vn 0.945370 -0.325207 0.022689
vn 0.945370 -0.325207 0.022689
vn 0.994736 0.056842 0.085263
vn 0.994736 0.056842 0.085263
vn 0.994736 0.056842 0.085263
vn 0.943403 -0.157234 0.292006
vn 0.943403 -0.157234 0.292006
vn 0.943403 -0.157234 0.292006
vn 0.898807 -0.149801 -0.411953
vn 0.898807 -0.149801 -0.411953
vn 0.898807 -0.149801 -0.411953
vn 0.970142 0.000000 -0.242536
vn 0.970142 0.000000 -0.242536
vn 0.970142 0.000000 -0.242536
vn 0.940554 -0.313518 -0.130633
vn 0.940554 -0.313518 -0.130633
vn 0.940554 -0.313518 -0.130633
vn 0.911804 -0.408740 -0.039302
vn 0.911804 -0.408740 -0.039302
vn 0.911804 -0.408740 -0.039302
vn 0.904902 -0.338095 -0.258543
vn 0.904902 -0.338095 -0.258543
vn 0.904902 -0.338095 -0.258543
vn -0.229696 -0.964725 0.128630
vn -0.229696 -0.964725 0.128630
vn -0.229696 -0.964725 0.128630
vn -0.470366 -0.857726 0.207514
vn -0.470366 -0.857726 0.207514
vn -0.470366 -0.857726 0.207514
vn -0.472370 -0.175452 0.863761
vn -0.472370 -0.175452 0.863761
vn -0.472370 -0.175452 0.863761
vn -0.772460 -0.487869 0.406558
vn -0.772460 -0.487869 0.406558
vn -0.772460 -0.487869 0.406558
vn -0.752773 -0.487088 0.442807
vn -0.752773 -0.487088 0.442807
vn -0.752773 -0.487088 0.442807
vn -0.455842 -0.683764 0.569803
vn -0.455842 -0.683764 0.569803
vn -0.455842 -0.683764 0.569803
vn -0.387652 0.177674 0.904521
vn -0.387652 0.177674 0.904521
vn -0.387652 0.177674 0.904521
vn -0.393297 -0.056185 0.917693
vn -0.393297 -0.056185 0.917693
vn -0.393297 -0.056185 0.917693
vn -0.477152 -0.176339 0.860948
vn -0.477152 -0.176339 0.860948
vn -0.477152 -0.176339 0.860948
vn -0.464214 -0.189906 0.865125
vn -0.464214 -0.189906 0.865125
vn -0.464214 -0.189906 0.865125
vn -0.449159 -0.524018 0.723644
vn -0.449159 -0.524018 0.723644
vn -0.449159 -0.524018 0.723644
vn -0.561558 -0.655151 0.505402
vn -0.561558 -0.655151 0.505402
vn -0.561558 -0.655151 0.505402
vn -0.673396 -0.690444 -0.264244
vn -0.673396 -0.690444 -0.264244
vn -0.673396 -0.690444 -0.264244
vn -0.029630 -0.977805 -0.207413
vn -0.029630 -0.977805 -0.207413
vn -0.029630 -0.977805 -0.207413
vn -0.283846 -0.951720 -0.116878
vn -0.283846 -0.951720 -0.116878
vn -0.283846 -0.951720 -0.116878
vn -0.409999 -0.862412 -0.296896
vn -0.409999 -0.862412 -0.296896
vn -0.409999 -0.862412 -0.296896
vn 0.229677 -0.803870 -0.548673
vn 0.229677 -0.803870 -0.548673
vn 0.229677 -0.803870 -0.548673
vn 0.320885 -0.708622 -0.628401
vn 0.320885 -0.708622 -0.628401
vn 0.320885 -0.708622 -0.628401
vn 0.350311 -0.597589 -0.721228
vn 0.350311 -0.597589 -0.721228
vn 0.350311 -0.597589 -0.721228
vn 0.745061 0.179842 0.642294
vn 0.745061 0.179842 0.642294
vn 0.745061 0.179842 0.642294
vn 0.797127 0.315529 0.514811
vn 0.797127 0.315529 0.514811
vn 0.797127 0.315529 0.514811
vn 0.752409 0.288157 0.592322
vn 0.752409 0.288157 0.592322
vn 0.752409 0.288157 0.592322
vn 0.872932 0.273605 0.403894
vn 0.872932 0.273605 0.403894
vn 0.872932 0.273605 0.403894
vn 0.985048 0.127477 0.115888
vn 0.985048 0.127477 0.115888
vn 0.985048 0.127477 0.115888
vn 0.985713 0.124630 0.113300
vn 0.985713 0.124630 0.113300
vn 0.985713 0.124630 0.113300
vn 0.983146 0.140449 0.117041
vn 0.983146 0.140449 0.117041
vn 0.983146 0.140449 0.117041
vn 0.982006 0.151078 0.113308
vn 0.982006 0.151078 0.113308
vn 0.982006 0.151078 0.113308
vn 0.463119 -0.496199 0.734375
vn 0.463119 -0.496199 0.734375
vn 0.463119 -0.496199 0.734375
vn 0.535052 -0.506891 0.675855
vn 0.535052 -0.506891 0.675855
vn 0.535052 -0.506891 0.675855
vn 0.577350 -0.577350 0.577350
vn 0.577350 -0.577350 0.577350
vn 0.577350 -0.577350 0.577350
vn 0.631592 -0.585378 0.508354
vn 0.631592 -0.585378 0.508354
vn 0.631592 -0.585378 0.508354
vn 0.699364 -0.679093 0.222986
vn 0.699364 -0.679093 0.222986
vn 0.699364 -0.679093 0.222986
vn 0.686346 -0.706337 0.173252
vn 0.686346 -0.706337 0.173252
vn 0.686346 -0.706337 0.173252
vn 0.656205 -0.715860 0.238620
vn 0.656205 -0.715860 0.238620
vn 0.656205 -0.715860 0.238620
vn 0.634653 -0.751222 -0.181330
vn 0.634653 -0.751222 -0.181330
vn 0.634653 -0.751222 -0.181330
vn -0.541332 -0.703732 -0.460132
vn -0.541332 -0.703732 -0.460132
vn -0.541332 -0.703732 -0.460132
vn -0.895267 -0.402870 -0.190244
vn -0.895267 -0.402870 -0.190244
vn -0.895267 -0.402870 -0.190244
vn 0.696311 -0.696311 -0.174078
vn 0.696311 -0.696311 -0.174078
vn 0.696311 -0.696311 -0.174078
vn 0.503220 -0.611052 -0.611052
vn 0.503220 -0.611052 -0.611052
vn 0.503220 -0.611052 -0.611052
vn 0.524702 -0.547189 -0.652129
vn 0.524702 -0.547189 -0.652129
vn 0.524702 -0.547189 -0.652129
vn 0.458408 -0.176815 -0.870976
vn 0.458408 -0.176815 -0.870976
vn 0.458408 -0.176815 -0.870976
vn 0.102372 -0.070873 -0.992218
vn 0.102372 -0.070873 -0.992218
vn 0.102372 -0.070873 -0.992218
vn -0.561403 -0.715992 -0.414950
vn -0.561403 -0.715992 -0.414950
vn -0.561403 -0.715992 -0.414950
vn -0.274007 -0.961427 -0.024036
vn -0.274007 -0.961427 -0.024036
vn -0.274007 -0.961427 -0.024036
vn 0.688247 0.229416 -0.688247
vn 0.688247 0.229416 -0.688247
vn 0.688247 0.229416 -0.688247
vn 0.654911 0.178612 -0.734295
vn 0.654911 0.178612 -0.734295
vn 0.654911 0.178612 -0.734295
vn 0.806018 0.219823 -0.549557
vn 0.806018 0.219823 -0.549557
vn 0.806018 0.219823 -0.549557
vn 0.880451 0.176090 -0.440225
vn 0.880451 0.176090 -0.440225
vn 0.880451 0.176090 -0.440225
vn 0.936382 0.085126 -0.340503
vn 0.936382 0.085126 -0.340503
vn 0.936382 0.085126 -0.340503
vn 0.962119 -0.220486 -0.160353
vn 0.962119 -0.220486 -0.160353
vn 0.962119 -0.220486 -0.160353
vn 0.973329 -0.162221 -0.162221
vn 0.973329 -0.162221 -0.162221
vn 0.973329 -0.162221 -0.162221
vn 0.145779 0.413040 -0.898970
vn 0.145779 0.413040 -0.898970
vn 0.145779 0.413040 -0.898970
vn 0.226752 0.064786 -0.971795
vn 0.226752 0.064786 -0.971795
vn 0.226752 0.064786 -0.971795
vn 0.126604 0.400912 -0.907326
vn 0.126604 0.400912 -0.907326
vn 0.126604 0.400912 -0.907326
vn -0.653828 0.103656 -0.749510
vn -0.653828 0.103656 -0.749510
vn -0.653828 0.103656 -0.749510
vn -0.662843 0.048207 -0.747205
vn -0.662843 0.048207 -0.747205
vn -0.662843 0.048207 -0.747205
vn -0.624391 -0.031219 -0.780488
vn -0.624391 -0.031219 -0.780488
vn -0.624391 -0.031219 -0.780488
vn -0.378517 -0.108148 -0.919255
vn -0.378517 -0.108148 -0.919255
vn -0.378517 -0.108148 -0.919255
vn -0.328982 -0.179445 -0.927130
vn -0.328982 -0.179445 -0.927130
vn -0.328982 -0.179445 -0.927130
vn -0.634850 -0.731040 -0.250093
vn -0.634850 -0.731040 -0.250093
vn -0.634850 -0.731040 -0.250093
vn -0.824336 -0.498436 -0.268388
vn -0.824336 -0.498436 -0.268388
vn -0.824336 -0.498436 -0.268388
vn -0.877155 -0.444273 -0.182266
vn -0.877155 -0.444273 -0.182266
vn -0.877155 -0.444273 -0.182266
vn 0.398015 -0.895533 -0.199008
vn 0.398015 -0.895533 -0.199008
vn 0.398015 -0.895533 -0.199008
vn -0.667863 -0.684988 -0.291120
vn -0.667863 -0.684988 -0.291120
vn -0.667863 -0.684988 -0.291120
vn -0.544949 -0.778499 0.311400
vn -0.544949 -0.778499 0.311400
vn -0.544949 -0.778499 0.311400
vn -0.554265 -0.752217 0.356313
vn -0.554265 -0.752217 0.356313
vn -0.554265 -0.752217 0.356313
vn -0.497927 -0.733060 0.463349
vn -0.497927 -0.733060 0.463349
vn -0.497927 -0.733060 0.463349
vn 0.485741 -0.819689 0.303588
vn 0.485741 -0.819689 0.303588
vn 0.485741 -0.819689 0.303588
vn 0.468678 -0.820187 0.328075
vn 0.468678 -0.820187 0.328075
vn 0.468678 -0.820187 0.328075
vn 0.414580 -0.725515 0.549319
vn 0.414580 -0.725515 0.549319
vn 0.414580 -0.725515 0.549319
vn 0.541493 -0.581115 0.607529
vn 0.541493 -0.581115 0.607529
vn 0.541493 -0.581115 0.607529
vn 0.503622 -0.687637 0.522992
vn 0.503622 -0.687637 0.522992
vn 0.503622 -0.687637 0.522992
vn -0.139487 -0.976406 0.164848
vn -0.139487 -0.976406 0.164848
vn -0.139487 -0.976406 0.164848
vn 0.274721 -0.961524 -0.000000
vn 0.274721 -0.961524 -0.000000
vn 0.274721 -0.961524 -0.000000
vn 0.420590 -0.875283 0.238713
vn 0.420590 -0.875283 0.238713
vn 0.420590 -0.875283 0.238713
vn 0.484524 -0.861376 0.152535
vn 0.484524 -0.861376 0.152535
vn 0.484524 -0.861376 0.152535
vn 0.343214 -0.933113 -0.107254
vn 0.343214 -0.933113 -0.107254
vn 0.343214 -0.933113 -0.107254
vn 0.354301 -0.906594 0.229254
vn 0.354301 -0.906594 0.229254
vn 0.354301 -0.906594 0.229254
vn 0.541967 -0.835532 -0.090328
vn 0.541967 -0.835532 -0.090328
vn 0.541967 -0.835532 -0.090328
vn 0.336568 -0.920612 0.197981
vn 0.336568 -0.920612 0.197981
vn 0.336568 -0.920612 0.197981
f 2//1 1//2 3//3
f 2//4 4//5 1//6
f 6//7 5//8 7//9
f 5//10 8//11 7//12
f 9//13 6//14 7//15
f 7//16 8//17 9//18
f 10//19 12//20 11//21
f 14//22 13//23 15//24
f 17//25 16//26 18//27
f 20//28 19//29 21//30
f 19//31 22//32 23//33
f 25//34 24//35 26//36
f 27//37 26//38 24//39
f 3//40 28//41 2//42
f 28//43 4//44 2//45
f 28//46 24//47 4//48
f 4//49 24//50 25//51
f 29//52 24//53 30//54
f 30//55 24//56 28//57
f 13//58 31//59 15//60
f 14//61 15//62 26//63
f 32//64 26//65 15//66
f 15//67 31//68 32//69
f 33//70 31//71 34//72
f 34//73 31//74 13//75
f 31//76 35//77 32//78
f 27//79 14//80 26//81
f 4//82 36//83 1//84
f 4//85 37//86 36//87
f 25//88 37//89 4//90
f 37//91 25//92 32//93
f 26//94 32//95 25//96
f 38//97 16//98 39//99
f 40//100 41//101 16//102
f 42//103 44//104 43//105
f 45//106 29//107 30//108
f 46//109 29//110 45//111
f 45//112 47//113 46//114
f 47//115 45//116 48//117
f 49//118 36//119 35//120
f 37//121 35//122 36//123
f 32//124 35//125 37//126
f 31//127 44//128 35//129
f 44//130 42//131 35//132
f 50//133 49//134 42//135
f 35//136 42//137 49//138
f 12//139 50//140 51//141
f 12//142 52//143 53//144
f 53//145 47//146 48//147
f 52//148 47//149 53//150
f 54//151 27//152 24//153
f 54//154 24//155 29//156
f 56//157 55//158 57//159
f 56//160 57//161 47//162
f 46//163 47//164 57//165
f 57//166 29//167 46//168
f 57//169 54//170 29//171
f 58//172 57//173 55//174
f 57//175 58//176 59//177
f 54//178 57//179 59//180
f 60//181 59//182 58//183
f 59//184 60//185 54//186
f 54//187 60//188 61//189
f 54//190 61//191 27//192
f 21//193 14//194 61//195
f 61//196 14//197 27//198
f 19//199 14//200 21//201
f 19//202 13//203 14//204
f 33//205 44//206 31//207
f 62//208 44//209 33//210
f 44//211 62//212 63//213
f 64//214 44//215 63//216
f 43//217 44//218 64//219
f 63//220 65//221 64//222
f 63//223 62//224 66//225
f 66//226 65//227 63//228
f 64//229 65//230 67//231
f 68//232 64//233 67//234
f 67//235 69//236 68//237
f 67//238 65//239 69//240
f 70//241 68//242 71//243
f 64//244 68//245 70//246
f 64//247 70//248 43//249
f 70//250 42//251 43//252
f 42//253 70//254 50//255
f 51//256 50//257 70//258
f 11//259 70//260 71//261
f 70//262 11//263 51//264
f 11//265 12//266 51//267
f 68//268 72//269 71//270
f 72//271 11//272 71//273
f 73//274 11//275 72//276
f 73//277 72//278 74//279
f 68//280 69//281 75//282
f 72//283 68//284 75//285
f 76//286 72//287 75//288
f 75//289 77//290 76//291
f 75//292 69//293 78//294
f 77//295 75//296 78//297
f 80//298 79//299 77//300
f 77//301 79//302 76//303
f 79//304 72//305 76//306
f 72//307 79//308 74//309
f 81//310 78//311 69//312
f 81//313 82//314 78//315
f 78//316 82//317 77//318
f 77//319 82//320 80//321
f 12//322 10//323 52//324
f 10//325 47//326 52//327
f 47//328 10//329 56//330
f 83//331 84//332 73//333
f 11//334 73//335 84//336
f 10//337 11//338 84//339
f 84//340 83//341 10//342
f 10//343 85//344 56//345
f 85//346 55//347 56//348
f 86//349 10//350 83//351
f 10//352 86//353 85//354
f 86//355 55//356 85//357
f 87//358 9//359 88//360
f 87//361 88//362 79//363
f 74//364 79//365 88//366
f 74//367 88//368 73//369
f 88//370 83//371 73//372
f 89//373 88//374 9//375
f 88//376 89//377 83//378
f 89//379 86//380 83//381
f 90//382 86//383 89//384
f 5//385 6//386 91//387
f 91//388 6//389 82//390
f 82//391 6//392 80//393
f 80//394 6//395 79//396
f 79//397 6//398 87//399
f 6//400 9//401 87//402
f 92//403 8//404 5//405
f 9//406 8//407 89//408
f 89//409 8//410 90//411
f 90//412 8//413 93//414
f 93//415 94//416 90//417
f 90//418 94//419 86//420
f 94//421 55//422 86//423
f 94//424 95//425 55//426
f 96//427 98//428 97//429
f 100//430 99//431 101//432
f 8//433 102//434 93//435
f 102//436 94//437 93//438
f 103//439 94//440 102//441
f 17//442 103//443 102//444
f 101//445 104//446 105//447
f 105//448 104//449 81//450
f 81//451 104//452 82//453
f 82//454 104//455 91//456
f 91//457 104//458 5//459
f 104//460 92//461 5//462
f 99//463 104//464 101//465
f 106//466 69//467 65//468
f 69//469 106//470 81//471
f 81//472 106//473 105//474
f 105//475 106//476 101//477
f 100//478 101//479 106//480
f 107//481 66//482 62//483
f 107//484 108//485 66//486
f 66//487 108//488 65//489
f 65//490 108//491 106//492
f 106//493 108//494 100//495
f 108//496 99//497 100//498
f 108//499 109//500 99//501
f 109//502 110//503 99//504
f 111//505 112//506 110//507
f 110//508 112//509 99//510
f 99//511 112//512 104//513
f 104//514 112//515 92//516
f 92//517 112//518 8//519
f 112//520 102//521 8//522
f 112//523 17//524 102//525
f 17//526 112//527 39//528
f 39//529 112//530 111//531
f 19//532 23//533 113//534
f 13//535 19//536 113//537
f 34//538 114//539 33//540
f 113//541 115//542 34//543
f 34//544 115//545 114//546
f 13//547 113//548 34//549
f 116//550 62//551 33//552
f 116//553 33//554 117//555
f 117//556 33//557 114//558
f 118//559 117//560 114//561
f 118//562 114//563 119//564
f 115//565 119//566 114//567
f 113//568 23//569 115//570
f 119//571 98//572 96//573
f 98//574 119//575 115//576
f 115//577 23//578 98//579
f 98//580 23//581 97//582
f 97//583 23//584 120//585
f 23//586 121//587 120//588
f 121//589 122//590 120//591
f 120//592 122//593 97//594
f 97//595 122//596 96//597
f 96//598 122//599 119//600
f 119//601 122//602 118//603
f 118//604 122//605 117//606
f 117//607 122//608 116//609
f 116//610 122//611 62//612
f 62//613 122//614 107//615
f 122//616 108//617 107//618
f 121//619 108//620 122//621
f 108//622 121//623 109//624
f 109//625 121//626 110//627
f 38//628 110//629 121//630
f 110//631 38//632 111//633
f 111//634 38//635 39//636
f 20//637 61//638 60//639
f 123//640 20//641 60//642
f 39//643 16//644 17//645
f 95//646 17//647 18//648
f 17//649 95//650 103//651
f 103//652 95//653 94//654
f 58//655 55//656 95//657
f 61//658 20//659 21//660
f 41//661 19//662 20//663
f 18//664 16//665 124//666
f 18//667 124//668 125//669
f 18//670 125//671 126//672
f 18//673 126//674 127//675
f 18//676 127//677 128//678
f 18//679 128//680 129//681
f 18//682 129//683 95//684
f 129//685 58//686 95//687
f 129//688 128//689 130//690
f 130//691 58//692 129//693
f 130//694 60//695 58//696
f 130//697 123//698 60//699
f 123//700 130//701 131//702
f 131//703 130//704 128//705
f 128//706 127//707 131//708
f 127//709 132//710 131//711
f 131//712 132//713 123//714
f 132//715 20//716 123//717
f 133//718 127//719 126//720
f 133//721 132//722 127//723
f 134//724 132//725 133//726
f 134//727 20//728 132//729
f 134//730 41//731 20//732
f 126//733 125//734 133//735
f 133//736 125//737 134//738
f 125//739 41//740 134//741
f 124//742 41//743 125//744
f 16//745 41//746 124//747
f 22//748 19//749 41//750
f 23//751 22//752 135//753
f 135//754 121//755 23//756
f 135//757 38//758 121//759
f 22//760 38//761 135//762
f 22//763 40//764 38//765
f 38//766 40//767 16//768
f 40//769 22//770 41//771
